<svg id="Layer_1" data-name="Layer 1" xmlns="http://www.w3.org/2000/svg" viewBox="0 0 625.6 630.02"><defs><style>.cls-1{fill:#111;}.cls-2{fill:#f8b500;}</style></defs><path d="M286.08,316.51a1.5,1.5,0,0,0,0-3,1.5,1.5,0,0,0,0,3Z" transform="translate(0)"/><path class="cls-1" d="M625.6,126.88m0,142" transform="translate(0)"/><path class="cls-2" d="M567.53,340,308.42,10.19c-10.67-13.59-34-13.59-44.67,0L177.43,120.07V48c0-6.6-6.3-12-14-12H88.81c-7.69,0-14,5.4-14,12V250.68L4.64,340c-12,15.34.77,36,22.34,36H50.55V618c0,6.6,6.3,12,14,12H507.63c7.69,0,14-5.4,14-12V376h23.57C566.76,376,579.58,355.35,567.53,340Z" transform="translate(0)"/><path d="M299.2,398.45q0,7.5,1.85,11.38t7.82,5.37q6,1.5,17.61,1.5c.57,0,.86.5.86,1.5s-.29,1.5-.86,1.5q-9.09,0-19.75-.25t-23.15-.25q-10.23,0-19.47.25t-16.62.25c-.57,0-.85-.5-.85-1.5s.28-1.5.85-1.5q8.81,0,13.07-1.25a8.09,8.09,0,0,0,5.68-5q1.42-3.75,1.42-11V283.7q0-7.24-1.42-10.87a8.47,8.47,0,0,0-5.68-5q-4.26-1.38-13.07-1.38c-.57,0-.85-.5-.85-1.5s.28-1.5.85-1.5q7.38,0,16.48.38t19.32.37q6.82,0,17.9-.75t20.75-.75q17.9,0,31.68,4.13t22,13.12q8.24,9,8.81,23.75.57,12.75-4.69,22.25a45.3,45.3,0,0,1-14.49,15.75,69.38,69.38,0,0,1-20.46,9.38,83,83,0,0,1-22.3,3.12q-2.85,0-6.4-.25a47,47,0,0,1-7-1c-.57-.16-.76-.79-.57-1.87s.66-1.54,1.42-1.38a38.22,38.22,0,0,0,5.12.75c1.89.17,3.41.25,4.54.25a26.74,26.74,0,0,0,15.06-4.5q6.82-4.5,11.09-13.75t4.26-23q0-13.24-4.26-22.37a31.15,31.15,0,0,0-12.51-14q-8.24-4.87-20.46-4.88a21.41,21.41,0,0,0-8.09,1.25,7.74,7.74,0,0,0-4.27,4.75,30.54,30.54,0,0,0-1.28,10Z" transform="translate(0)"/><path d="M208.18,505V389.21c0-4.83-.53-8.46-1.56-10.88s-3.13-4.08-6.26-5S192.55,372,186.3,372c-.57,0-.85-.5-.85-1.5s.28-1.5.85-1.5q7.38,0,16.76.37t19.61.38q13.07,0,22.87-.38T263.3,369q.57,0,.57,1.5t-.57,1.5q-9.94,0-15.06,1.5t-6.82,5.25q-1.69,3.75-1.7,11V505q0,7.25,1.7,11t6.82,5q5.12,1.24,15.06,1.25.57,0,.57,1.5t-.57,1.5q-8.24,0-17.9-.25t-22.73-.25q-10.23,0-19.89.25t-17.05.25q-.57,0-.57-1.5t.57-1.5q9.66,0,14.35-1.25a9.07,9.07,0,0,0,6.39-5Q208.18,512.21,208.18,505ZM223,447.46v-7H346v7ZM331.5,389.71q0-7.24-1.56-11c-1.05-2.5-3.27-4.25-6.68-5.25s-8.53-1.5-15.35-1.5c-.56,0-.85-.5-.85-1.5s.29-1.5.85-1.5q7.39,0,16.91.37t22.59.38q10.23,0,20.32-.38T385.2,369c.57,0,.86.5.86,1.5s-.29,1.5-.86,1.5q-9.37,0-14.2,1.37t-6.4,5Q363,382,363,389.21V505q0,7.25,1.56,11t6.4,5q4.83,1.24,14.2,1.25c.57,0,.86.5.86,1.5s-.29,1.5-.86,1.5q-7.38,0-17.47-.25t-20.32-.25q-13.07,0-22.59.25t-16.91.25c-.56,0-.85-.5-.85-1.5s.29-1.5.85-1.5q10.23,0,15.35-1.25c3.41-.83,5.63-2.5,6.68-5s1.56-6.17,1.56-11Z" transform="translate(0)"/></svg>