<svg id="Layer_1" data-name="Layer 1" xmlns="http://www.w3.org/2000/svg" viewBox="0 0 572.17 630.02"><defs><style>.cls-1{fill:#111;}.cls-2{fill:#f8b500;}.cls-3{fill:none;}</style></defs><path d="M334.78,316.88a1.5,1.5,0,0,0,0-3,1.5,1.5,0,0,0,0,3Z" transform="translate(-48.7)"/><path class="cls-1" d="M334.78,127.25m0,142" transform="translate(-48.7)"/><path class="cls-2" d="M616.22,340,357.12,10.19c-10.68-13.59-34-13.59-44.68,0L226.13,120.07V48c0-6.6-6.3-12-14-12H137.51c-7.7,0-14,5.4-14,12V250.68L53.34,340c-12.06,15.34.76,36,22.34,36H99.25V618c0,6.6,6.29,12,14,12H556.32c7.7,0,14-5.4,14-12V376h23.58C615.46,376,628.28,355.35,616.22,340Z" transform="translate(-48.7)"/><path d="M359.41,395.24q0,7.5,1.82,11.37t7.7,5.38q5.88,1.5,17.35,1.5.84,0,.84,1.5t-.84,1.5q-9,0-19.45-.25T344,416q-10.08,0-19.18.25t-16.38.25q-.84,0-.84-1.5t.84-1.5q8.67,0,12.88-1.25a8,8,0,0,0,5.6-5q1.4-3.75,1.4-11V280.49q0-7.26-1.4-10.88a8.42,8.42,0,0,0-5.6-5q-4.2-1.37-12.88-1.37-.84,0-.84-1.5t.84-1.5q7.28,0,16.24.37t19,.38q6.72,0,17.64-.75t20.43-.75q17.64,0,31.22,4.12t21.7,13.13q8.11,9,8.68,23.75.56,12.75-4.62,22.25a45.05,45.05,0,0,1-14.28,15.75,67.9,67.9,0,0,1-20.16,9.37,80.27,80.27,0,0,1-22,3.13c-1.86,0-4-.09-6.29-.25a47,47,0,0,1-6.86-1c-.56-.17-.75-.79-.56-1.88s.65-1.54,1.4-1.37a40.34,40.34,0,0,0,5,.75c1.86.16,3.36.25,4.48.25A26.08,26.08,0,0,0,394.4,343q6.72-4.5,10.92-13.75t4.2-23q0-13.26-4.2-22.38a30.93,30.93,0,0,0-12.32-14Q384.89,265,372.85,265a20.7,20.7,0,0,0-8,1.25,7.62,7.62,0,0,0-4.2,4.75,30.81,30.81,0,0,0-1.26,10Z" transform="translate(-48.7)"/><path d="M212,512.7V397q0-7.24-2.48-10.88t-9.89-5q-7.42-1.36-22.27-1.37-1.35,0-1.35-1.5t1.35-1.5q11.68,0,26.54.37t31,.38q20.68,0,36.22-.38t28.11-.37q.9,0,.9,1.5t-.9,1.5q-15.75,0-23.84,1.5t-10.8,5.25q-2.7,3.75-2.7,11V512.7q0,7.24,2.7,11t10.8,5q8.1,1.24,23.84,1.25.9,0,.9,1.5t-.9,1.5q-13,0-28.34-.25t-36-.25q-16.2,0-31.49.25t-27,.25c-.61,0-.9-.5-.9-1.5s.29-1.5.9-1.5q15.28,0,22.72-1.25t10.12-5Q212,520,212,512.7Zm23.39-57.5v-7H430.15v7Zm171.85-57.75q0-7.24-2.47-11t-10.58-5.25q-8.09-1.5-24.29-1.5-1.35,0-1.35-1.5t1.35-1.5q11.7,0,26.77.37t35.76.38q16.2,0,32.17-.38t27.67-.37q1.35,0,1.35,1.5t-1.35,1.5q-14.85,0-22.5,1.37t-10.12,5q-2.47,3.63-2.47,10.88V512.7q0,7.24,2.47,11t10.12,5q7.65,1.24,22.5,1.25,1.35,0,1.35,1.5t-1.35,1.5q-11.72,0-27.67-.25t-32.17-.25q-20.68,0-35.76.25t-26.77.25q-1.35,0-1.35-1.5t1.35-1.5q16.2,0,24.29-1.25t10.58-5q2.46-3.75,2.47-11Z" transform="translate(-48.7)"/><line class="cls-3" x1="48.08" y1="375.58" x2="524.08" y2="373.58"/></svg>